<svg width="180" height="180" viewBox="0 0 180 180" fill="none" xmlns="http://www.w3.org/2000/svg">
<path d="M107.421 130.036C108.46 143.749 114.534 151.484 119.022 141.415C135.526 81.0472 132.591 72.5183 128.807 61.5277C128.454 60.5031 128.094 59.4571 127.742 58.3457C125.558 54.7433 125.707 53.2027 128.387 51.703C143.32 43.349 161.453 69.4488 150.001 82.8139C144.461 89.2791 145.129 93.3571 151.594 92.5106C164.523 90.8129 172.078 71.1988 165.688 55.9198C157.514 36.3717 138.798 29.019 118.676 37.4481C111.71 40.3658 110.635 40.0968 102.843 38.1482C102.26 38.0025 101.639 37.8472 100.976 37.6834C93.255 36.4231 81.8944 36.4802 77.0584 38.119C73.9573 39.1681 73.4031 41.6555 74.576 49.213C77.2054 66.1487 73.3666 74.865 59.8564 85.1015C58.6296 86.031 54.5741 84.5221 57.2786 82.4129C67.6313 73.2738 72.5146 53.5641 66.1756 41.2845C66.0571 41.055 65.9431 40.8328 65.8328 40.618C64.2683 37.57 63.4657 36.0062 61.6094 36.0062C54.5741 36.7307 50.7084 41.2846 50.7084 41.2846C45.5785 49.7456 31.333 49.9298 25.9196 41.2847C22.9811 38.488 16.4142 37.8169 15.3906 38.0683C14.6173 39.0064 13.2052 40.9865 12.2434 46.6505C10.7505 66.3167 16.0557 80.3932 30.0844 85.1015C34.8019 86.6855 37.1455 92.0869 40.525 105.468C45.5527 149.38 51.9962 152.793 54.8528 131.392C63.5965 83.3843 67.4533 101.399 74.3207 135.213C76.0248 143.6 76.9246 146.819 81.6412 144.828C84.935 143.438 85.9771 134.446 87.3359 122.723L87.3363 122.719C87.5725 120.681 87.8184 118.56 88.0873 116.382C93.2016 74.9623 104.802 95.4435 107.421 130.036Z" fill="orange"/>
</svg>
