<svg width="160" height="131" viewBox="0 0 160 131" fill="none" xmlns="http://www.w3.org/2000/svg">
<g clip-path="url(#clip0_138_94)">
<path d="M97.8681 111.97C98.9331 127.887 105.163 136.866 109.766 125.178C126.694 55.1085 123.683 45.2088 119.802 32.4519C119.44 31.2626 119.071 30.0485 118.71 28.7585C116.47 24.5771 116.623 22.7889 119.371 21.0482C134.687 11.3515 153.285 41.646 141.54 57.1591C135.858 64.6634 136.543 69.3968 143.174 68.4142C156.434 66.4437 164.183 43.6773 157.629 25.9427C149.245 3.25291 130.049 -5.28153 109.411 4.50231C102.267 7.88888 101.164 7.57661 93.172 5.31485C92.5745 5.14573 91.9376 4.96551 91.2577 4.77533C83.3386 3.31254 71.6867 3.37876 66.7267 5.28105C63.546 6.49875 62.9776 9.38582 64.1806 18.158C66.8774 37.8155 62.9402 47.9327 49.0836 59.8144C47.8253 60.8933 43.6658 59.1418 46.4396 56.6937C57.0578 46.0858 62.0663 23.2084 55.5648 8.95528C55.4433 8.68888 55.3263 8.431 55.2132 8.18167C53.6086 4.64373 52.7854 2.82866 50.8815 2.82866C43.6658 3.66958 39.701 8.95537 39.701 8.95537C34.4395 18.7762 19.8288 18.99 14.2765 8.95552C11.2627 5.70933 4.52738 4.93038 3.47756 5.22213C2.68438 6.311 1.2361 8.60933 0.249644 15.1837C-1.28157 38.0105 4.1597 54.3493 18.5481 59.8144C23.3866 61.6529 25.7903 67.9224 29.2565 83.454C34.4131 134.423 41.0218 138.385 43.9517 113.545C52.9196 57.8212 56.8753 78.7311 63.9188 117.98C65.6665 127.714 66.5894 131.451 71.427 129.14C74.8052 127.526 75.8741 117.089 77.2677 103.482L77.2681 103.478C77.5104 101.112 77.7626 98.6499 78.0384 96.1219C83.2838 48.0456 95.1817 71.8185 97.8681 111.97Z" fill="black"/>
</g>
<defs>
<clipPath id="clip0_138_94">
<rect width="160" height="131" fill="white"/>
</clipPath>
</defs>
</svg>
